<svg width="86" height="108" viewBox="0 0 86 108" fill="none" xmlns="http://www.w3.org/2000/svg">
<path fill-rule="evenodd" clip-rule="evenodd" d="M37.7943 90.8364C19.8066 90.8364 5.17236 74.1295 5.17236 53.5941C5.17236 33.0587 19.8066 16.3518 37.7943 16.3518C42.7948 16.3518 47.5352 17.6446 51.7751 19.9501V29.0876C48.1573 26.8548 43.9931 25.5833 39.5617 25.5833C25.6451 25.5833 14.3634 38.1242 14.3634 53.5941C14.3634 69.0641 25.6451 81.605 39.5617 81.605C43.9931 81.605 48.1573 80.3335 51.7751 78.1007V87.2381C47.5352 89.5435 42.7948 90.8364 37.7943 90.8364Z" fill="white"/>
<path d="M45.9983 98.8118C44.6305 96.4075 43.9016 95.6597 43.5466 95.3C43.3479 95.1012 43.0876 94.8315 42.8699 94.4623C41.1944 93.0614 40.4467 90.7187 40.5744 88.8918C40.6123 88.3191 40.7638 87.8127 40.9625 87.3347H5.87816V13.2519H55.1515V68.5549C55.1657 68.588 55.1705 68.5975 55.1847 68.6306C56.0224 70.3439 57.1298 72.592 57.9817 74.2721C58.3746 74.0118 58.8147 73.7657 59.2975 73.5811C59.7424 73.4107 60.3387 73.2404 61.0344 73.193V7.84701C61.025 3.52122 57.5179 0 53.1779 0H7.84228C3.50702 0 0 3.52122 0 7.84701V99.9193C0 104.259 3.50702 107.771 7.84228 107.771H53.1874C54.8534 107.771 56.3868 107.25 57.6552 106.361C55.7479 105.599 53.6134 104.515 51.4457 102.925C47.2193 100.979 46.287 99.5596 45.9983 98.8118ZM48.0144 4.92213C49.1219 4.92213 50.0259 5.82137 50.0259 6.92411C50.0259 8.04106 49.1266 8.9261 48.0144 8.9261C46.907 8.9261 46.0077 8.04106 46.0077 6.92411C46.0077 5.82137 46.907 4.92213 48.0144 4.92213ZM20.0056 5.68411H41.0288V7.9748H20.0056V5.68411ZM40.087 99.4081H20.938V93.5158H40.0822L40.087 99.4081ZM13.2046 21.8467H26.8445V36.6935H13.2046V21.8467ZM27.7296 38.4636C28.2171 38.4636 28.6193 38.0613 28.6193 37.5738V20.9569C28.6193 20.4694 28.2171 20.0671 27.7296 20.0671H12.3101C11.8226 20.0671 11.4203 20.4694 11.4203 20.9569V37.5786C11.4203 38.0661 11.8226 38.4683 12.3101 38.4683L27.7296 38.4636ZM12.3101 20.9569H27.7296V37.5786H12.3101V20.9569ZM51.3321 46.2775C51.3321 47.5932 50.272 48.6486 48.9563 48.6486H12.5514C11.2404 48.6486 10.1756 47.5932 10.1756 46.2775C10.1756 44.9665 11.2357 43.9016 12.5514 43.9016H48.961C50.272 43.9016 51.3321 44.9665 51.3321 46.2775ZM44.4979 58.6396H12.3101C10.9991 58.6396 9.93418 57.5795 9.93418 56.2637C9.93418 54.9575 10.9943 53.8926 12.3101 53.8926H48.7196C50.0306 53.8926 51.0955 54.9527 51.0955 56.2637C51.0955 57.5747 50.0306 58.6396 48.7196 58.6396H48.1943C47.1105 58.2137 45.8989 58.0717 44.7583 58.5118C44.6731 58.5402 44.5879 58.6018 44.4979 58.6396ZM37.6874 64.0918C37.7726 64.6503 37.9051 65.275 38.1039 65.9566C38.4731 66.9788 38.8186 67.9065 39.1688 68.8341H12.3101C10.9991 68.8341 9.93418 67.774 9.93418 66.4582C9.93418 65.1472 10.9943 64.0871 12.3101 64.0871L37.6874 64.0918ZM68.8767 107.449C68.8767 107.449 69.5772 105.684 66.3825 104.922C66.3825 104.922 60.5564 105.064 54.2807 101.292C54.2807 101.292 49.9644 99.8388 49.5195 98.7266C46.5189 94.4434 45.8326 94.9545 45.6906 94.1831C42.7563 92.891 41.9801 86.2225 47.6595 89.2704C47.7352 89.2373 51.5025 92.219 51.5215 92.1432C51.5215 92.1432 54.5599 94.6942 56.1738 94.7889C58.2894 93.6104 52.1225 84.4003 52.061 83.5958C52.061 83.5958 48.6912 77.9353 43.1538 66.5008C40.4041 59.6666 45.0328 60.883 46.8786 63.1405C47.3518 62.9891 56.2164 78.2666 56.808 78.1672C56.808 78.1672 59.3117 72.8712 63.7369 76.4256C63.7369 76.4256 66.6475 71.9246 70.59 75.7251C70.59 75.7251 76.3924 73.354 78.5174 78.6784C78.5174 78.6784 84.5565 87.6139 84.4713 96.0715L85.0866 99.3608L68.8767 107.449Z" fill="#FFD227"/>
</svg>
