<svg width="91" height="116" viewBox="0 0 91 116" fill="none" xmlns="http://www.w3.org/2000/svg">
<path d="M62.1874 20.0227V34.2899C62.1874 42.1693 54.7161 48.557 45.4999 48.557C36.2837 48.557 28.8124 42.1693 28.8124 34.2899V20.0227H23.25V34.2899C23.2638 44.7909 33.2174 53.3008 45.4999 53.3127C57.7824 53.3008 67.7359 44.7909 67.7498 34.2899V20.0227H62.1874Z" fill="#FFD227" stroke="#FFD227"/>
<path d="M76.1994 63.3642L56.6249 54.6851V48.5574H51.0625V56.1308C51.0625 57.0191 51.6416 57.8337 52.5644 58.2423L73.6407 67.5802C80.2064 70.1084 84.431 75.6908 84.4375 81.8473V110.382H6.56252V81.8473C6.56904 75.6908 10.7936 70.1084 17.3593 67.5802L38.4356 58.2423C39.3584 57.8337 39.9375 57.0191 39.9375 56.1308V48.5574H34.3751V54.6851L14.8007 63.3642C6.36436 66.6838 0.970656 73.9076 1.00012 81.8473V112.76C0.999859 114.073 2.24516 115.137 3.78119 115.137H87.2186C88.7546 115.137 89.9999 114.073 89.9999 112.759V81.8473C90.0291 73.9074 84.6354 66.6836 76.1994 63.3642Z" fill="#FFD227" stroke="#FFD227"/>
<path d="M20.4687 96.1145H14.9062V112.76H20.4687V96.1145Z" fill="#FFD227" stroke="#FFD227"/>
<path d="M76.0934 96.1145H70.531V112.76H76.0934V96.1145Z" fill="#FFD227" stroke="#FFD227"/>
<path d="M73.3124 1H17.6873C16.1513 1 14.906 2.06469 14.906 3.37793C14.906 7.01851 16.7278 13.5315 23.2497 14.9771V20.023C23.2497 21.3363 24.495 22.401 26.0311 22.401H64.9684C66.5045 22.401 67.7498 21.3363 67.7498 20.023V14.9771C74.2717 13.5315 76.0935 7.01851 76.0935 3.37793C76.0935 2.06469 74.8484 1 73.3124 1ZM64.9687 10.5115C63.4327 10.5115 62.1874 11.5762 62.1874 12.8894V17.6451H28.8124V12.8892C28.8124 11.576 27.5671 10.5113 26.0311 10.5113C22.624 10.5113 21.303 7.83374 20.7912 5.75564H70.2083C69.6967 7.83397 68.3755 10.5115 64.9687 10.5115Z" fill="#FFD227" stroke="#FFD227"/>
<path d="M56.625 20.0227C56.625 23.9624 52.8894 27.1563 48.2813 27.1563H42.7189C38.1108 27.1563 34.3752 23.9624 34.3752 20.0227H28.8125C28.8216 26.5858 35.0424 31.9041 42.7186 31.9119H48.281C55.9575 31.9041 62.1781 26.5856 62.1872 20.0227H56.625Z" fill="#FFD227" stroke="#FFD227"/>
<path d="M48.2809 10.5115H42.7185V15.2671H48.2809V10.5115Z" fill="#FFD227" stroke="#FFD227"/>
<path d="M54.9562 56.1663L45.4999 62.2298L36.0435 56.1663L32.7061 59.9709L43.8311 67.1045C44.3125 67.4132 44.8981 67.58 45.4999 67.58C46.1017 67.58 46.6873 67.413 47.1686 67.1045L58.2937 59.9709L54.9562 56.1663Z" fill="#FFD227" stroke="#FFD227"/>
<path d="M45.4997 62.8242C40.8917 62.8242 37.156 66.0181 37.156 69.9578C37.156 72.7281 39.7593 81.847 45.4997 81.847C51.2402 81.847 53.8435 72.7279 53.8435 69.9578C53.8435 66.0181 50.1078 62.8242 45.4997 62.8242ZM45.4997 76.8916C43.9048 74.8173 42.9481 72.4325 42.7184 69.9578C42.7184 68.6445 43.9637 67.5799 45.4997 67.5799C47.0358 67.5799 48.2811 68.6445 48.2811 69.9578C48.0514 72.4325 47.0947 74.8175 45.4997 76.8916Z" fill="#FFD227" stroke="#FFD227"/>
<path d="M42.8937 78.6345C42.5461 79.4263 34.3748 98.228 34.3748 112.759H39.9372C39.9372 99.0983 48.0222 80.4892 48.1057 80.2989L42.8937 78.6345Z" fill="#FFD227" stroke="#FFD227"/>
<path d="M48.106 78.6394L42.894 80.304C42.9775 80.4894 51.0626 99.082 51.0626 112.759H56.625C56.625 98.2282 48.4536 79.4265 48.106 78.6394Z" fill="#FFD227" stroke="#FFD227"/>
<path d="M70.5311 81.8474H59.406V86.6031H70.5311V81.8474Z" fill="#FFD227" stroke="#FFD227"/>
</svg>
