<svg width="226" height="67" viewBox="0 0 226 67" fill="none" xmlns="http://www.w3.org/2000/svg">
<path d="M38.536 45.8105C36.7152 45.8105 35.239 47.2867 35.239 49.1076C35.239 50.9288 36.7152 52.4046 38.536 52.4046H38.5712C40.392 52.4046 41.8506 50.9288 41.8506 49.1076C41.8506 47.2872 40.3569 45.8105 38.536 45.8105Z" fill="#FFD227"/>
<path d="M161.873 45.8105C160.052 45.8105 158.576 47.2867 158.576 49.1076C158.576 50.9288 160.052 52.4046 161.873 52.4046H161.909C163.73 52.4046 165.188 50.9288 165.188 49.1076C165.188 47.2872 163.694 45.8105 161.873 45.8105Z" fill="#FFD227"/>
<path d="M222.047 30.6166L220.159 28.7298C218.786 27.356 218.029 25.5286 218.029 23.5856V10.3452C218.029 8.5239 216.552 7.04815 214.732 7.04815C204.559 7.04815 198.286 15.041 198.024 15.3813C196.917 16.8188 197.184 18.8743 198.617 19.9887C200.048 21.1027 202.117 20.8438 203.239 19.4173C203.276 19.3693 206.433 15.4235 211.435 14.0822V23.5856C211.435 26.8953 212.59 30.0266 214.703 32.5249L174.576 37.2458C171.4 33.8463 166.882 31.7151 161.873 31.7151C154.702 31.7151 148.533 36.0773 145.875 42.2872H77.2993C75.4785 42.2872 74.0023 43.7629 74.0023 45.5842C74.0023 47.405 75.4785 48.8812 77.2993 48.8812H144.486C144.485 48.9568 144.48 49.032 144.48 49.108C144.48 51.7048 145.056 54.1679 146.081 56.383H54.3283C55.3526 54.1679 55.9289 51.7048 55.9289 49.108C55.9289 49.032 55.9241 48.9573 55.9232 48.8812H63.2039C65.0247 48.8812 66.5009 47.405 66.5009 45.5842C66.5009 43.7629 65.0247 42.2872 63.2039 42.2872H54.5341C51.8762 36.0778 45.7068 31.7151 38.5365 31.7151C31.3661 31.7151 25.1963 36.0773 22.5389 42.2872H6.59404V40.9007C6.59404 36.2039 9.53806 32.0945 13.9196 30.6742C22.9152 27.7587 38.6094 24.2911 62.4324 24.2173L65.0568 25.5295C67.9459 26.974 71.1805 27.7376 74.4107 27.7376H145.463C150.109 27.7376 154.476 25.9282 157.761 22.6431L165.184 15.2204L173.228 18.4378C176.964 19.932 180.898 20.6899 184.922 20.6899H186.541C188.361 20.6899 189.838 19.2137 189.838 17.3929C189.838 15.5716 188.361 14.0959 186.541 14.0959H184.922C181.741 14.0959 178.63 13.4967 175.677 12.315L154.93 4.01621C148.267 1.35133 141.25 0 134.074 0H99.4804C93.5726 0 87.8015 1.65511 82.7913 4.7864L62.2553 17.621C37.6634 17.7125 21.3111 21.3467 11.8864 24.4015C4.77673 26.7059 0 33.336 0 40.9002V56.1553C0 59.9166 3.05964 62.9766 6.82088 62.9766H27.9645C27.993 62.9766 28.0207 62.9731 28.0493 62.9722C30.9669 65.1848 34.6003 66.5005 38.536 66.5005C42.4692 66.5005 46.1007 65.1865 49.0175 62.9766H151.392C154.309 65.1865 157.94 66.5005 161.873 66.5005C168.357 66.5005 174.02 62.9314 177.011 57.657L219.048 52.7466C222.485 52.3453 225.077 49.4325 225.077 45.9719V37.9316C225.077 35.1682 224.001 32.5702 222.047 30.6166ZM152.481 10.139L158.523 12.5559L153.099 17.9806C151.059 20.0204 148.348 21.1436 145.463 21.1436H122.883V6.59404H134.074C140.407 6.59404 146.6 7.78668 152.481 10.139ZM86.2861 10.3781C90.247 7.90274 94.8096 6.59404 99.4804 6.59404H116.289V21.1436H74.4111C72.96 21.1436 71.5093 20.9141 70.1233 20.4802L86.2861 10.3781ZM6.59404 56.1553V48.8808H21.1493C21.1484 48.9564 21.1436 49.0315 21.1436 49.1076C21.1436 51.7043 21.7195 54.1674 22.7442 56.3826H6.82088C6.69559 56.3826 6.59404 56.281 6.59404 56.1553ZM27.7376 49.1076C27.7376 43.1532 32.5821 38.3092 38.536 38.3092C44.49 38.3092 49.3344 43.1536 49.3344 49.1076C49.3344 55.0616 44.49 59.9064 38.536 59.9064C32.5821 59.9064 27.7376 55.062 27.7376 49.1076ZM161.873 59.9064C155.919 59.9064 151.075 55.062 151.075 49.1076C151.075 43.1532 155.919 38.3092 161.873 38.3092C167.827 38.3092 172.672 43.1536 172.672 49.1076C172.672 55.0616 167.828 59.9064 161.873 59.9064ZM218.282 46.197L179.185 50.764C179.237 50.2185 179.266 49.6663 179.266 49.1076C179.266 47.1254 178.928 45.2219 178.315 43.4455L218.483 38.7198V45.9715C218.483 46.0866 218.396 46.1838 218.282 46.197Z" fill="#FFD227"/>
</svg>
