<svg width="144" height="91" viewBox="0 0 144 91" fill="none" xmlns="http://www.w3.org/2000/svg">
<path d="M113.121 61.8512C110.334 56.0412 100.365 47.9766 90.7324 40.1843C85.36 35.8414 80.2835 31.7353 77.0472 28.499C76.2365 27.6825 75.0237 27.4221 73.9528 27.8068C71.959 28.5287 70.7282 29.0848 69.758 29.5166C68.2789 30.1792 67.7819 30.4041 65.7878 30.6052C64.9062 30.6939 64.1135 31.1673 63.6223 31.9009C59.4392 38.1547 55.1082 37.6222 52.2149 36.6521C51.2919 36.3445 51.1264 35.9479 51.0376 35.5693C50.4164 32.972 53.5345 26.9251 57.5754 22.8839C67.1901 13.2634 72.1482 10.8552 82.6207 15.5354C94.5012 20.8485 106.406 25.0081 106.524 25.0494C108.08 25.5877 109.755 24.7712 110.293 23.227C110.825 21.6827 110.015 19.9965 108.47 19.4582C108.352 19.4168 96.6845 15.3402 85.0405 10.1275C71.4737 4.06282 64.0303 8.05657 53.3981 18.6949C49.3511 22.7419 43.8544 30.9305 45.2744 36.9361C45.8837 39.4921 47.6826 41.3855 50.3567 42.2669C57.0604 44.4798 63.178 42.3615 67.734 36.3148C69.6155 36.025 70.6391 35.599 72.1773 34.9068C72.7334 34.6583 73.3843 34.3684 74.2482 34.0193C77.6326 37.1965 82.2002 40.8943 87.0105 44.7816C95.708 51.8164 105.571 59.7923 107.79 64.4072C108.885 66.6851 107.707 68.1702 106.908 68.8506C105.737 69.8565 104.133 70.176 103.264 69.5664C102.305 68.9096 101.057 68.8683 100.069 69.4599C99.0746 70.0515 98.5186 71.1697 98.6428 72.3176C98.8439 74.1991 97.1221 75.2761 96.3766 75.6488C94.4832 76.6073 92.5071 76.4417 91.7675 75.7553C90.939 74.9862 89.7498 74.7613 88.6967 75.1518C87.6436 75.5481 86.9098 76.5186 86.8033 77.6426C86.6258 79.5832 85.188 81.447 83.3124 82.1747C82.4071 82.5178 81.0936 82.725 79.9163 81.648C79.1827 80.9855 78.1649 80.7309 77.2125 80.9616C76.2481 81.1982 75.473 81.8965 75.1357 82.8254C75.0234 83.1213 74.7688 83.8313 71.9998 83.8313C70.0295 83.8313 66.4854 82.5 64.752 81.3521C62.6752 79.9854 49.6525 70.2703 38.4052 60.8509C36.8254 59.5196 34.0919 56.6677 31.6779 54.1472C29.536 51.9107 27.5777 49.8814 26.5717 49.0294C25.3115 47.9644 23.4477 48.1241 22.4005 49.3785C21.3474 50.6269 21.5011 52.4967 22.7497 53.5498C23.6668 54.325 25.4418 56.2004 27.4002 58.2416C30.0391 60.9987 32.7665 63.8506 34.6008 65.389C45.6178 74.6132 58.8592 84.571 61.4979 86.3044C63.6753 87.7363 68.3671 89.7479 72.0001 89.7479C74.9169 89.7479 77.1595 89.0792 78.7154 87.7718C80.798 88.5825 83.1648 88.5883 85.4426 87.7008C88.1348 86.6594 90.3475 84.559 91.6019 82.015C93.933 82.512 96.6016 82.1628 99.0272 80.9441C101.4 79.7491 103.116 77.9208 103.968 75.7847C106.322 75.909 108.748 75.0747 110.754 73.353C114.15 70.4481 115.085 65.9279 113.121 61.8512Z" fill="#FFD227" stroke="#FFD227"/>
<path d="M60.1665 12.8315H33.5416C31.9086 12.8315 30.5831 14.157 30.5831 15.79C30.5831 17.423 31.9086 18.7484 33.5416 18.7484H60.1665C61.7995 18.7484 63.125 17.423 63.125 15.79C63.125 14.157 61.7995 12.8315 60.1665 12.8315Z" fill="#FFD227" stroke="#FFD227"/>
<path d="M121.789 55.556C120.872 54.2012 119.037 53.8285 117.683 54.7514L109.033 60.5615C107.678 61.4726 107.317 63.3128 108.228 64.6676C108.802 65.5138 109.737 65.9753 110.689 65.9753C111.252 65.9753 111.825 65.8155 112.334 65.4724L120.984 59.6624C122.339 58.751 122.7 56.9111 121.789 55.556Z" fill="#FFD227" stroke="#FFD227"/>
<path d="M103.423 69.673C101.305 68.0045 91.8325 58.3072 85.9751 52.2012C84.8449 51.0178 82.9695 50.9765 81.7919 52.1125C80.6084 53.2426 80.5729 55.118 81.7031 56.2956C83.2238 57.8812 96.6367 71.8624 99.7549 74.3238C100.293 74.7498 100.944 74.957 101.583 74.957C102.453 74.957 103.323 74.5665 103.914 73.8268C104.926 72.5485 104.707 70.6848 103.423 69.673Z" fill="#FFD227" stroke="#FFD227"/>
<path d="M91.6019 75.6076C88.0577 72.7734 79.1533 63.3126 77.1414 61.1236C76.029 59.9166 74.1653 59.8456 72.9583 60.9461C71.7571 62.0524 71.6745 63.9281 72.7808 65.1292C72.8873 65.2416 83.5137 76.7142 87.9038 80.2287C88.4482 80.6605 89.1049 80.8735 89.7498 80.8735C90.6137 80.8735 91.4773 80.4888 92.0631 79.7672C93.0812 78.4889 92.874 76.6251 91.6019 75.6076Z" fill="#FFD227" stroke="#FFD227"/>
<path d="M79.8277 81.5656C75.609 78.0098 66.9767 68.8211 65.2904 67.0164C64.1722 65.8213 62.2965 65.7562 61.1073 66.8744C59.9122 67.9927 59.8528 69.8622 60.9653 71.0576C63.3912 73.6549 71.6508 82.4117 76.0114 86.0918C76.5675 86.5591 77.242 86.7899 77.9165 86.7899C78.7566 86.7899 79.5969 86.4291 80.1827 85.7368C81.2358 84.4824 81.076 82.6187 79.8277 81.5656Z" fill="#FFD227" stroke="#FFD227"/>
<path d="M35.577 7.72545C30.5063 2.92102 10.23 1.36485 4.13592 1.00402C3.29585 0.962697 2.52068 1.2406 1.9291 1.80277C1.33725 2.35885 1 3.13985 1 3.95635V57.2063C1 58.8393 2.32543 60.1647 3.95842 60.1647H21.7084C22.9864 60.1647 24.1224 59.3424 24.5187 58.1235C24.9506 56.7981 35.1452 25.5109 36.4881 10.1275C36.5652 9.22809 36.2337 8.34059 35.577 7.72545ZM19.5487 54.2482H6.91657V7.12777C16.4247 7.87909 26.6842 9.5121 30.4117 11.3226C28.8439 24.2801 21.7497 47.3018 19.5487 54.2482Z" fill="#FFD227" stroke="#FFD227"/>
<path d="M140.042 6.91528C116.813 6.91528 103.926 12.8615 103.388 13.11C102.619 13.4709 102.045 14.1395 101.808 14.9502C101.571 15.7609 101.69 16.6306 102.133 17.3523C105.79 23.2395 117.239 55.9349 119.44 63.9105C119.795 65.1943 120.96 66.0818 122.292 66.0818H140.042C141.675 66.0818 143 64.7564 143 63.1234V9.87343C143 8.23461 141.675 6.91528 140.042 6.91528ZM137.083 60.1653H124.504C121.7 51.0298 113.417 27.2094 108.796 17.3642C113.31 15.8319 123.008 13.1988 137.083 12.8676V60.1653Z" fill="#FFD227" stroke="#FFD227"/>
</svg>
